<svg width="176" height="126" viewBox="0 0 176 126" fill="none" xmlns="http://www.w3.org/2000/svg">
<path d="M169.714 0H6.28571C2.80893 0 0 2.55937 0 5.72727V120.273C0 123.441 2.80893 126 6.28571 126H169.714C173.191 126 176 123.441 176 120.273V5.72727C176 2.55937 173.191 0 169.714 0ZM161.857 19.8307V113.114H14.1429V19.8307L8.72143 15.9827L16.4411 6.94432L24.8482 12.9043H151.171L159.579 6.94432L167.298 15.9827L161.857 19.8307V19.8307ZM151.171 12.8864L88 57.6307L24.8286 12.8864L16.4214 6.92642L8.70179 15.9648L14.1232 19.8128L81.2232 67.3491C83.1529 68.7151 85.5269 69.4566 87.9705 69.4566C90.4141 69.4566 92.7882 68.7151 94.7179 67.3491L161.857 19.8307L167.279 15.9827L159.559 6.94432L151.171 12.8864Z" fill="#F1A52C"/>
</svg>
